{
  "accessors": [
    {
      "bufferView": 3,
      "componentType": 5126,
      "count": 65534,
      "max": [
        435,
        821.88275146484375,
        454.935791015625
      ],
      "min": [
        -435,
        -7.6830954640172422e-05,
        -435
      ],
      "type": "VEC3"
    },
    {
      "bufferView": 3,
      "byteOffset": 786408,
      "componentType": 5126,
      "count": 65534,
      "max": [
        1,
        1,
        1
      ],
      "min": [
        -1,
        -0.99999833106994629,
        -1
      ],
      "type": "VEC3"
    },
    {
      "bufferView": 4,
      "componentType": 5126,
      "count": 65534,
      "max": [
        1,
        1,
        0.99999541044235229,
        1
      ],
      "min": [
        -1,
        -1,
        -0.99999541044235229,
        1
      ],
      "type": "VEC4"
    },
    {
      "bufferView": 2,
      "componentType": 5126,
      "count": 65534,
      "max": [
        0.91529172658920288,
        0.99729853868484497
      ],
      "min": [
        3.2693693356122822e-05,
        0.0027014743536710739
      ],
      "type": "VEC2"
    },
    {
      "bufferView": 1,
      "componentType": 5125,
      "count": 123255,
      "max": [
        65533
      ],
      "min": [
        0
      ],
      "type": "SCALAR"
    },
    {
      "bufferView": 3,
      "byteOffset": 1572816,
      "componentType": 5126,
      "count": 27435,
      "max": [
        500,
        821.84771728515625,
        499.99993896484375
      ],
      "min": [
        -500,
        -7.6830954640172422e-05,
        -500.00006103515625
      ],
      "type": "VEC3"
    },
    {
      "bufferView": 3,
      "byteOffset": 1902036,
      "componentType": 5126,
      "count": 27435,
      "max": [
        1,
        1,
        1
      ],
      "min": [
        -1,
        -1,
        -1
      ],
      "type": "VEC3"
    },
    {
      "bufferView": 4,
      "byteOffset": 1048544,
      "componentType": 5126,
      "count": 27435,
      "max": [
        0.99983668327331543,
        0.99999988079071045,
        1,
        1
      ],
      "min": [
        -0.99983465671539307,
        -1,
        -0.99995905160903931,
        -1
      ],
      "type": "VEC4"
    },
    {
      "bufferView": 2,
      "byteOffset": 524272,
      "componentType": 5126,
      "count": 27435,
      "max": [
        0.99665844440460205,
        0.93560218811035156
      ],
      "min": [
        0.0044588111340999603,
        0.0025893670972436666
      ],
      "type": "VEC2"
    },
    {
      "bufferView": 1,
      "byteOffset": 493020,
      "componentType": 5125,
      "count": 47733,
      "max": [
        27434
      ],
      "min": [
        0
      ],
      "type": "SCALAR"
    },
    {
      "bufferView": 5,
      "componentType": 5126,
      "count": 4,
      "max": [
        1,
        0.010000000707805157,
        0,
        0,
        0,
        1,
        0.0099999997764825821,
        0,
        0.0099999997764825821,
        0,
        1,
        0,
        0,
        0,
        0,
        1
      ],
      "min": [
        4.3711387287537207e-10,
        0,
        -6.1232339527331096e-19,
        0,
        0,
        6.1232344697209924e-19,
        0,
        0,
        0,
        -4.371139283865233e-10,
        2.676550509078868e-26,
        0,
        0,
        -6.1232342629258393e-17,
        -1,
        1
      ],
      "type": "MAT4"
    },
    {
      "bufferView": 0,
      "componentType": 5123,
      "count": 65534,
      "max": [
        1,
        1,
        1,
        1
      ],
      "min": [
        1,
        1,
        1,
        1
      ],
      "type": "VEC4"
    },
    {
      "bufferView": 4,
      "byteOffset": 1487504,
      "componentType": 5126,
      "count": 65534,
      "max": [
        1,
        0,
        0,
        0
      ],
      "min": [
        1,
        0,
        0,
        0
      ],
      "type": "VEC4"
    },
    {
      "bufferView": 0,
      "byteOffset": 524272,
      "componentType": 5123,
      "count": 27435,
      "max": [
        2,
        1,
        1,
        1
      ],
      "min": [
        1,
        1,
        1,
        1
      ],
      "type": "VEC4"
    },
    {
      "bufferView": 4,
      "byteOffset": 2536048,
      "componentType": 5126,
      "count": 27435,
      "max": [
        1,
        0,
        0,
        0
      ],
      "min": [
        1,
        0,
        0,
        0
      ],
      "type": "VEC4"
    },
    {
      "bufferView": 6,
      "componentType": 5126,
      "count": 120,
      "max": [
        3.9666666984558105
      ],
      "min": [
        0
      ],
      "type": "SCALAR"
    },
    {
      "bufferView": 8,
      "componentType": 5126,
      "count": 120,
      "max": [
        0.49967575073242188,
        0.70710378885269165,
        0.70710331201553345,
        0.70704042911529541
      ],
      "min": [
        -0.70703965425491333,
        -0.5,
        -0.49999994039535522,
        -0.49966451525688171
      ],
      "type": "VEC4"
    },
    {
      "bufferView": 6,
      "byteOffset": 480,
      "componentType": 5126,
      "count": 251,
      "max": [
        8.3333330154418945
      ],
      "min": [
        0
      ],
      "type": "SCALAR"
    },
    {
      "bufferView": 7,
      "componentType": 5126,
      "count": 251,
      "max": [
        3.705769144237564e-22,
        1,
        5.0292581243224083e-22
      ],
      "min": [
        -5.558653716356346e-22,
        1,
        -6.3527471044072525e-22
      ],
      "type": "VEC3"
    },
    {
      "bufferView": 6,
      "byteOffset": 1484,
      "componentType": 5126,
      "count": 40,
      "max": [
        8.3333330154418945
      ],
      "min": [
        0
      ],
      "type": "SCALAR"
    },
    {
      "bufferView": 8,
      "byteOffset": 1920,
      "componentType": 5126,
      "count": 40,
      "max": [
        -0.5,
        -0.5,
        -0.49999994039535522,
        0.50000005960464478
      ],
      "min": [
        -0.5,
        -0.5,
        -0.49999994039535522,
        0.50000005960464478
      ],
      "type": "VEC4"
    },
    {
      "bufferView": 6,
      "byteOffset": 1644,
      "componentType": 5126,
      "count": 251,
      "max": [
        8.3333330154418945
      ],
      "min": [
        0
      ],
      "type": "SCALAR"
    },
    {
      "bufferView": 8,
      "byteOffset": 2560,
      "componentType": 5126,
      "count": 251,
      "max": [
        0.7071068286895752,
        9.813073232054612e-17,
        9.8130824964774726e-17,
        0.70710670948028564
      ],
      "min": [
        0.7071068286895752,
        -7.8504628208084259e-17,
        -7.8504634825529159e-17,
        0.70710670948028564
      ],
      "type": "VEC4"
    },
    {
      "bufferView": 6,
      "byteOffset": 2648,
      "componentType": 5126,
      "count": 1,
      "max": [
        0
      ],
      "min": [
        0
      ],
      "type": "SCALAR"
    },
    {
      "bufferView": 7,
      "byteOffset": 3012,
      "componentType": 5126,
      "count": 1,
      "max": [
        0,
        14.999994277954102,
        0
      ],
      "min": [
        0,
        14.999994277954102,
        0
      ],
      "type": "VEC3"
    },
    {
      "bufferView": 6,
      "byteOffset": 2652,
      "componentType": 5126,
      "count": 251,
      "max": [
        8.3333330154418945
      ],
      "min": [
        0
      ],
      "type": "SCALAR"
    },
    {
      "bufferView": 8,
      "byteOffset": 6576,
      "componentType": 5126,
      "count": 251,
      "max": [
        0.49327331781387329,
        0.70709997415542603,
        0.70710009336471558,
        0.70710670948028564
      ],
      "min": [
        -0.7071068286895752,
        -0.49841761589050293,
        -0.49842128157615662,
        -0.49327296018600464
      ],
      "type": "VEC4"
    },
    {
      "bufferView": 6,
      "byteOffset": 3656,
      "componentType": 5126,
      "count": 250,
      "max": [
        8.3000001907348633
      ],
      "min": [
        0
      ],
      "type": "SCALAR"
    },
    {
      "bufferView": 7,
      "byteOffset": 3024,
      "componentType": 5126,
      "count": 250,
      "max": [
        3.705769144237564e-22,
        1,
        1.0058516248644817e-21
      ],
      "min": [
        -2.9116757561866574e-22,
        1,
        -4.7645603283054394e-22
      ],
      "type": "VEC3"
    },
    {
      "bufferView": 6,
      "byteOffset": 4656,
      "componentType": 5126,
      "count": 23,
      "max": [
        8.3000001907348633
      ],
      "min": [
        0
      ],
      "type": "SCALAR"
    },
    {
      "bufferView": 8,
      "byteOffset": 10592,
      "componentType": 5126,
      "count": 23,
      "max": [
        -0.5,
        -0.5,
        -0.49999994039535522,
        0.50000005960464478
      ],
      "min": [
        -0.5,
        -0.5,
        -0.49999994039535522,
        0.50000005960464478
      ],
      "type": "VEC4"
    },
    {
      "bufferView": 6,
      "byteOffset": 4748,
      "componentType": 5126,
      "count": 250,
      "max": [
        8.3000001907348633
      ],
      "min": [
        0
      ],
      "type": "SCALAR"
    },
    {
      "bufferView": 8,
      "byteOffset": 10960,
      "componentType": 5126,
      "count": 250,
      "max": [
        0.7071068286895752,
        7.8504674530198562e-17,
        7.8504694382533263e-17,
        0.70710670948028564
      ],
      "min": [
        0.7071068286895752,
        -9.813073232054612e-17,
        -9.8130824964774726e-17,
        0.70710670948028564
      ],
      "type": "VEC4"
    },
    {
      "bufferView": 6,
      "byteOffset": 5748,
      "componentType": 5126,
      "count": 1,
      "max": [
        0
      ],
      "min": [
        0
      ],
      "type": "SCALAR"
    },
    {
      "bufferView": 7,
      "byteOffset": 6024,
      "componentType": 5126,
      "count": 1,
      "max": [
        0,
        14.999994277954102,
        0
      ],
      "min": [
        0,
        14.999994277954102,
        0
      ],
      "type": "VEC3"
    },
    {
      "bufferView": 6,
      "byteOffset": 5752,
      "componentType": 5126,
      "count": 250,
      "max": [
        8.3000001907348633
      ],
      "min": [
        0
      ],
      "type": "SCALAR"
    },
    {
      "bufferView": 8,
      "byteOffset": 14960,
      "componentType": 5126,
      "count": 250,
      "max": [
        0.49654510617256165,
        0.70710664987564087,
        0.70710676908493042,
        0.70710670948028564
      ],
      "min": [
        -0.7071068286895752,
        -0.49704912304878235,
        -0.49705114960670471,
        -0.49654337763786316
      ],
      "type": "VEC4"
    },
    {
      "bufferView": 6,
      "byteOffset": 6752,
      "componentType": 5126,
      "count": 1,
      "max": [
        0
      ],
      "min": [
        0
      ],
      "type": "SCALAR"
    },
    {
      "bufferView": 7,
      "byteOffset": 6036,
      "componentType": 5126,
      "count": 1,
      "max": [
        0,
        14.999994277954102,
        0
      ],
      "min": [
        0,
        14.999994277954102,
        0
      ],
      "type": "VEC3"
    },
    {
      "bufferView": 6,
      "byteOffset": 6756,
      "componentType": 5126,
      "count": 1,
      "max": [
        0
      ],
      "min": [
        0
      ],
      "type": "SCALAR"
    },
    {
      "bufferView": 8,
      "byteOffset": 18960,
      "componentType": 5126,
      "count": 1,
      "max": [
        -0.67715108394622803,
        0.20363308489322662,
        0.20363308489322662,
        0.67715108394622803
      ],
      "min": [
        -0.67715108394622803,
        0.20363308489322662,
        0.20363308489322662,
        0.67715108394622803
      ],
      "type": "VEC4"
    }
  ],
  "animations": [
    {
      "channels": [
        {
          "sampler": 0,
          "target": {
            "node": 13,
            "path": "rotation"
          }
        }
      ],
      "name": "Armature|ArmatureAction",
      "samplers": [
        {
          "input": 15,
          "interpolation": "LINEAR",
          "output": 16
        }
      ]
    },
    {
      "channels": [
        {
          "sampler": 0,
          "target": {
            "node": 13,
            "path": "translation"
          }
        },
        {
          "sampler": 1,
          "target": {
            "node": 13,
            "path": "rotation"
          }
        },
        {
          "sampler": 2,
          "target": {
            "node": 12,
            "path": "rotation"
          }
        },
        {
          "sampler": 3,
          "target": {
            "node": 6,
            "path": "translation"
          }
        },
        {
          "sampler": 4,
          "target": {
            "node": 6,
            "path": "rotation"
          }
        }
      ],
      "name": "Armature|FloorRotator.001|FloorRotator.001|FloorRotator.001|FloorRot.000",
      "samplers": [
        {
          "input": 17,
          "interpolation": "LINEAR",
          "output": 18
        },
        {
          "input": 19,
          "interpolation": "LINEAR",
          "output": 20
        },
        {
          "input": 21,
          "interpolation": "LINEAR",
          "output": 22
        },
        {
          "input": 23,
          "interpolation": "LINEAR",
          "output": 24
        },
        {
          "input": 25,
          "interpolation": "LINEAR",
          "output": 26
        }
      ]
    },
    {
      "channels": [
        {
          "sampler": 0,
          "target": {
            "node": 13,
            "path": "translation"
          }
        },
        {
          "sampler": 1,
          "target": {
            "node": 13,
            "path": "rotation"
          }
        },
        {
          "sampler": 2,
          "target": {
            "node": 12,
            "path": "rotation"
          }
        },
        {
          "sampler": 3,
          "target": {
            "node": 6,
            "path": "translation"
          }
        },
        {
          "sampler": 4,
          "target": {
            "node": 6,
            "path": "rotation"
          }
        }
      ],
      "name": "Armature|FloorRotator.001|FloorRotator.001|FloorRotator.001|FloorRot.001",
      "samplers": [
        {
          "input": 27,
          "interpolation": "LINEAR",
          "output": 28
        },
        {
          "input": 29,
          "interpolation": "LINEAR",
          "output": 30
        },
        {
          "input": 31,
          "interpolation": "LINEAR",
          "output": 32
        },
        {
          "input": 33,
          "interpolation": "LINEAR",
          "output": 34
        },
        {
          "input": 35,
          "interpolation": "LINEAR",
          "output": 36
        }
      ]
    },
    {
      "channels": [
        {
          "sampler": 0,
          "target": {
            "node": 6,
            "path": "translation"
          }
        },
        {
          "sampler": 1,
          "target": {
            "node": 6,
            "path": "rotation"
          }
        }
      ],
      "name": "Armature|FloorRotator.001|FloorRotator.001|FloorRotator.001|FloorRotator",
      "samplers": [
        {
          "input": 37,
          "interpolation": "LINEAR",
          "output": 38
        },
        {
          "input": 39,
          "interpolation": "LINEAR",
          "output": 40
        }
      ]
    }
  ],
  "asset": {
    "extras": {
      "author": "Periklis (https://sketchfab.com/periklis)",
      "license": "CC-BY-4.0 (http://creativecommons.org/licenses/by/4.0/)",
      "source": "https://sketchfab.com/3d-models/carousel-9c3d212732504dacba458ae5b734ad97",
      "title": "Carousel"
    },
    "generator": "Sketchfab-7.33.0",
    "version": "2.0"
  },
  "bufferViews": [
    {
      "buffer": 0,
      "byteLength": 743752,
      "byteOffset": 0,
      "byteStride": 8,
      "name": "shortBufferViews",
      "target": 34962
    },
    {
      "buffer": 0,
      "byteLength": 683952,
      "byteOffset": 743752,
      "name": "floatBufferViews",
      "target": 34963
    },
    {
      "buffer": 0,
      "byteLength": 743752,
      "byteOffset": 1427704,
      "byteStride": 8,
      "name": "floatBufferViews",
      "target": 34962
    },
    {
      "buffer": 0,
      "byteLength": 2231256,
      "byteOffset": 2171456,
      "byteStride": 12,
      "name": "floatBufferViews",
      "target": 34962
    },
    {
      "buffer": 0,
      "byteLength": 2975008,
      "byteOffset": 4402712,
      "byteStride": 16,
      "name": "floatBufferViews",
      "target": 34962
    },
    {
      "buffer": 0,
      "byteLength": 256,
      "byteOffset": 7377720,
      "byteStride": 64,
      "name": "floatBufferViews"
    },
    {
      "buffer": 0,
      "byteLength": 6760,
      "byteOffset": 7377976,
      "name": "floatBufferViews"
    },
    {
      "buffer": 0,
      "byteLength": 6048,
      "byteOffset": 7384736,
      "byteStride": 12,
      "name": "floatBufferViews"
    },
    {
      "buffer": 0,
      "byteLength": 18976,
      "byteOffset": 7390784,
      "byteStride": 16,
      "name": "floatBufferViews"
    }
  ],
  "buffers": [
    {
      "byteLength": 7409760,
      "uri": "scene.bin"
    }
  ],
  "extensionsRequired": [
    "KHR_materials_pbrSpecularGlossiness"
  ],
  "extensionsUsed": [
    "KHR_materials_pbrSpecularGlossiness"
  ],
  "images": [
    {
      "uri": "textures/Material_diffuse.png"
    },
    {
      "uri": "textures/Material_specularGlossiness.png"
    },
    {
      "uri": "textures/Material_normal.png"
    }
  ],
  "materials": [
    {
      "doubleSided": true,
      "emissiveFactor": [
        0,
        0,
        0
      ],
      "extensions": {
        "KHR_materials_pbrSpecularGlossiness": {
          "diffuseFactor": [
            1,
            1,
            1,
            1
          ],
          "diffuseTexture": {
            "index": 0,
            "texCoord": 0
          },
          "glossinessFactor": 1,
          "specularFactor": [
            0,
            0,
            0
          ],
          "specularGlossinessTexture": {
            "index": 1,
            "texCoord": 0
          }
        }
      },
      "name": "Material",
      "normalTexture": {
        "index": 2,
        "scale": 1,
        "texCoord": 0
      }
    }
  ],
  "meshes": [
    {
      "name": "CarouselBody_Material_0",
      "primitives": [
        {
          "attributes": {
            "JOINTS_0": 11,
            "NORMAL": 1,
            "POSITION": 0,
            "TANGENT": 2,
            "TEXCOORD_0": 3,
            "WEIGHTS_0": 12
          },
          "indices": 4,
          "material": 0,
          "mode": 4
        }
      ]
    },
    {
      "name": "CarouselBody_Material_0",
      "primitives": [
        {
          "attributes": {
            "JOINTS_0": 13,
            "NORMAL": 6,
            "POSITION": 5,
            "TANGENT": 7,
            "TEXCOORD_0": 8,
            "WEIGHTS_0": 14
          },
          "indices": 9,
          "material": 0,
          "mode": 4
        }
      ]
    }
  ],
  "nodes": [
    {
      "children": [
        1
      ],
      "name": "RootNode (gltf orientation matrix)",
      "rotation": [
        -0.70710678118654746,
        -0,
        -0,
        0.70710678118654757
      ]
    },
    {
      "children": [
        2
      ],
      "name": "RootNode (model correction matrix)"
    },
    {
      "children": [
        3
      ],
      "matrix": [
        1,
        0,
        0,
        0,
        0,
        0,
        1,
        0,
        0,
        -1,
        0,
        0,
        0,
        0,
        0,
        1
      ],
      "name": "4e3e7e89ea8e4884808d0527f3a13c02.fbx"
    },
    {
      "children": [
        4
      ],
      "name": ""
    },
    {
      "children": [
        5,
        6
      ],
      "name": "RootNode"
    },
    {
      "name": "CarouselBody",
      "rotation": [
        -0.7071068286895752,
        0,
        0,
        0.70710670948028564
      ],
      "scale": [
        100,
        100,
        100
      ]
    },
    {
      "children": [
        7
      ],
      "name": "Armature",
      "rotation": [
        -0.7071068286895752,
        0,
        0,
        0.70710670948028564
      ],
      "scale": [
        100,
        100,
        100
      ]
    },
    {
      "children": [
        8,
        10,
        11,
        9
      ],
      "name": ""
    },
    {
      "children": [
        12
      ],
      "name": "_rootJoint"
    },
    {
      "matrix": [
        100,
        0,
        0,
        0,
        0,
        6.1232339957367661e-15,
        -100,
        0,
        0,
        100,
        6.1232339957367661e-15,
        0,
        0,
        0,
        0,
        1
      ],
      "name": ""
    },
    {
      "mesh": 0,
      "name": "",
      "skin": 0
    },
    {
      "mesh": 1,
      "name": "",
      "skin": 0
    },
    {
      "children": [
        13
      ],
      "name": "Bone_00",
      "rotation": [
        0.7071068286895752,
        0,
        0,
        0.70710670948028564
      ]
    },
    {
      "children": [
        14
      ],
      "name": "Bone.001_01",
      "rotation": [
        -0.5,
        -0.5,
        -0.49999997019767761,
        0.50000005960464478
      ],
      "scale": [
        1,
        0.99999994039535522,
        1
      ],
      "translation": [
        0,
        1,
        0
      ]
    },
    {
      "name": "Bone.001_end_02",
      "rotation": [
        3.2092161272732112e-24,
        -7.8886090522101181e-31,
        -6.6174449004242214e-24,
        1
      ],
      "translation": [
        -1.2924697685031227e-30,
        2.2588207721710205,
        0
      ]
    }
  ],
  "samplers": [
    {
      "magFilter": 9729,
      "minFilter": 9987,
      "wrapS": 10497,
      "wrapT": 10497
    }
  ],
  "scene": 0,
  "scenes": [
    {
      "name": "OSG_Scene",
      "nodes": [
        0
      ]
    }
  ],
  "skins": [
    {
      "inverseBindMatrices": 10,
      "joints": [
        8,
        12,
        13,
        14
      ],
      "skeleton": 8
    }
  ],
  "textures": [
    {
      "sampler": 0,
      "source": 0
    },
    {
      "sampler": 0,
      "source": 1
    },
    {
      "sampler": 0,
      "source": 2
    }
  ]
}

